<svg width="20" height="20" viewBox="0 0 20 20" fill="none" xmlns="http://www.w3.org/2000/svg">
<path d="M10 3.75C10.8629 3.75 11.5625 3.05044 11.5625 2.1875C11.5625 1.32456 10.8629 0.625 10 0.625C9.13706 0.625 8.4375 1.32456 8.4375 2.1875C8.4375 3.05044 9.13706 3.75 10 3.75Z" stroke="black" stroke-linejoin="round"/>
<path d="M7.97772 10.7203C8.091 10.0149 8.14179 9.33282 7.95819 8.86133C7.80194 8.45587 7.4621 8.22891 7.05194 8.07423L3.43749 6.90469C2.96874 6.74844 2.53085 6.48673 2.49999 5.96954C2.46093 5.30548 3.04686 4.87579 3.6328 5.03204C3.6328 5.03204 7.0703 6.24844 9.99999 6.24844C12.9297 6.24844 16.3281 5.03751 16.3281 5.03751C17.0312 4.84219 17.5 5.38907 17.5 5.9668C17.5 6.52188 17.0703 6.71719 16.5625 6.90196L13.125 8.14844C12.8125 8.26563 12.3047 8.50001 12.1094 8.8586C11.875 9.27852 11.9141 10.0121 12.0273 10.7176L12.2578 11.875L13.7191 18.2773C13.8285 18.791 13.473 19.2711 12.9613 19.3609C12.4496 19.4508 12.0312 19.1016 11.8797 18.6047L10.4125 14.0762C10.3419 13.859 10.2794 13.6393 10.225 13.4172L9.99999 12.5L9.79296 13.3457C9.72733 13.6152 9.65181 13.8819 9.5664 14.1457L8.12499 18.6008C7.96874 19.1027 7.55858 19.4504 7.04686 19.3609C6.53515 19.2715 6.17186 18.752 6.28671 18.2773L7.74725 11.8777L7.97772 10.7203Z" stroke="black" stroke-linejoin="round"/>
</svg>
