<svg width="20" height="20" viewBox="0 0 20 20" fill="none" xmlns="http://www.w3.org/2000/svg">
<path d="M6.875 16.25V18.75M3.125 1.25H10.625C10.9565 1.25 11.2745 1.3817 11.5089 1.61612C11.7433 1.85054 11.875 2.16848 11.875 2.5V18.5938C11.875 18.6352 11.8585 18.6749 11.8292 18.7042C11.7999 18.7335 11.7602 18.75 11.7188 18.75H1.875V2.5C1.875 2.16848 2.0067 1.85054 2.24112 1.61612C2.47554 1.3817 2.79348 1.25 3.125 1.25ZM12.5 7.5H16.875C17.2065 7.5 17.5245 7.6317 17.7589 7.86612C17.9933 8.10054 18.125 8.41848 18.125 8.75V18.75H11.875V8.125C11.875 7.95924 11.9408 7.80027 12.0581 7.68306C12.1753 7.56585 12.3342 7.5 12.5 7.5Z" stroke="black" stroke-linecap="round" stroke-linejoin="round"/>
<path d="M3.83126 16.8699C3.70182 16.8869 3.57033 16.8628 3.45524 16.8012C3.34015 16.7396 3.24724 16.6435 3.18955 16.5264C3.13186 16.4093 3.11229 16.2771 3.13358 16.1483C3.15488 16.0195 3.21596 15.9006 3.30827 15.8083C3.40058 15.716 3.51948 15.6549 3.64827 15.6336C3.77707 15.6123 3.9093 15.6319 4.02641 15.6896C4.14351 15.7472 4.23961 15.8401 4.30123 15.9552C4.36284 16.0703 4.38687 16.2018 4.36994 16.3313C4.35207 16.4679 4.28957 16.5947 4.19216 16.6922C4.09474 16.7896 3.96787 16.8521 3.83126 16.8699ZM3.83126 13.7449C3.70182 13.7619 3.57033 13.7378 3.45524 13.6762C3.34015 13.6146 3.24724 13.5185 3.18955 13.4014C3.13186 13.2843 3.11229 13.1521 3.13358 13.0233C3.15488 12.8945 3.21596 12.7756 3.30827 12.6833C3.40058 12.591 3.51948 12.5299 3.64827 12.5086C3.77707 12.4873 3.9093 12.5069 4.02641 12.5646C4.14351 12.6222 4.23961 12.7151 4.30123 12.8302C4.36284 12.9453 4.38687 13.0768 4.36994 13.2063C4.35207 13.3429 4.28957 13.4697 4.19216 13.5672C4.09474 13.6646 3.96787 13.7271 3.83126 13.7449ZM3.83126 10.6199C3.70182 10.6369 3.57033 10.6128 3.45524 10.5512C3.34015 10.4896 3.24724 10.3935 3.18955 10.2764C3.13186 10.1593 3.11229 10.0271 3.13358 9.89827C3.15488 9.76948 3.21596 9.65058 3.30827 9.55827C3.40058 9.46596 3.51948 9.40488 3.64827 9.38358C3.77707 9.36229 3.9093 9.38186 4.02641 9.43955C4.14351 9.49724 4.23961 9.59015 4.30123 9.70524C4.36284 9.82033 4.38687 9.95182 4.36994 10.0813C4.35207 10.2179 4.28957 10.3447 4.19216 10.4422C4.09474 10.5396 3.96787 10.6021 3.83126 10.6199ZM3.83126 7.49494C3.70182 7.51187 3.57033 7.48784 3.45524 7.42623C3.34015 7.36461 3.24724 7.26851 3.18955 7.15141C3.13186 7.0343 3.11229 6.90207 3.13358 6.77327C3.15488 6.64448 3.21596 6.52558 3.30827 6.43327C3.40058 6.34096 3.51948 6.27988 3.64827 6.25858C3.77707 6.23729 3.9093 6.25686 4.02641 6.31455C4.14351 6.37224 4.23961 6.46515 4.30123 6.58024C4.36284 6.69533 4.38687 6.82682 4.36994 6.95626C4.35207 7.09287 4.28957 7.21974 4.19216 7.31716C4.09474 7.41457 3.96787 7.47707 3.83126 7.49494ZM3.83126 4.36994C3.70182 4.38687 3.57033 4.36284 3.45524 4.30123C3.34015 4.23961 3.24724 4.14351 3.18955 4.02641C3.13186 3.9093 3.11229 3.77707 3.13358 3.64827C3.15488 3.51948 3.21596 3.40058 3.30827 3.30827C3.40058 3.21596 3.51948 3.15488 3.64827 3.13358C3.77707 3.11229 3.9093 3.13186 4.02641 3.18955C4.14351 3.24724 4.23961 3.34015 4.30123 3.45524C4.36284 3.57033 4.38687 3.70182 4.36994 3.83126C4.35207 3.96787 4.28957 4.09474 4.19216 4.19216C4.09474 4.28957 3.96787 4.35207 3.83126 4.36994ZM6.95626 13.7449C6.82682 13.7619 6.69533 13.7378 6.58024 13.6762C6.46515 13.6146 6.37224 13.5185 6.31455 13.4014C6.25686 13.2843 6.23729 13.1521 6.25858 13.0233C6.27988 12.8945 6.34096 12.7756 6.43327 12.6833C6.52558 12.591 6.64448 12.5299 6.77327 12.5086C6.90207 12.4873 7.0343 12.5069 7.15141 12.5646C7.26851 12.6222 7.36461 12.7151 7.42623 12.8302C7.48784 12.9453 7.51187 13.0768 7.49494 13.2063C7.47707 13.3429 7.41457 13.4697 7.31716 13.5672C7.21974 13.6646 7.09287 13.7271 6.95626 13.7449ZM6.95626 10.6199C6.82682 10.6369 6.69533 10.6128 6.58024 10.5512C6.46515 10.4896 6.37224 10.3935 6.31455 10.2764C6.25686 10.1593 6.23729 10.0271 6.25858 9.89827C6.27988 9.76948 6.34096 9.65058 6.43327 9.55827C6.52558 9.46596 6.64448 9.40488 6.77327 9.38358C6.90207 9.36229 7.0343 9.38186 7.15141 9.43955C7.26851 9.49724 7.36461 9.59015 7.42623 9.70524C7.48784 9.82033 7.51187 9.95182 7.49494 10.0813C7.47707 10.2179 7.41457 10.3447 7.31716 10.4422C7.21974 10.5396 7.09287 10.6021 6.95626 10.6199ZM6.95626 7.49494C6.82682 7.51187 6.69533 7.48784 6.58024 7.42623C6.46515 7.36461 6.37224 7.26851 6.31455 7.15141C6.25686 7.0343 6.23729 6.90207 6.25858 6.77327C6.27988 6.64448 6.34096 6.52558 6.43327 6.43327C6.52558 6.34096 6.64448 6.27988 6.77327 6.25858C6.90207 6.23729 7.0343 6.25686 7.15141 6.31455C7.26851 6.37224 7.36461 6.46515 7.42623 6.58024C7.48784 6.69533 7.51187 6.82682 7.49494 6.95626C7.47707 7.09287 7.41457 7.21974 7.31716 7.31716C7.21974 7.41457 7.09287 7.47707 6.95626 7.49494ZM6.95626 4.36994C6.82682 4.38687 6.69533 4.36284 6.58024 4.30123C6.46515 4.23961 6.37224 4.14351 6.31455 4.02641C6.25686 3.9093 6.23729 3.77707 6.25858 3.64827C6.27988 3.51948 6.34096 3.40058 6.43327 3.30827C6.52558 3.21596 6.64448 3.15488 6.77327 3.13358C6.90207 3.11229 7.0343 3.13186 7.15141 3.18955C7.26851 3.24724 7.36461 3.34015 7.42623 3.45524C7.48784 3.57033 7.51187 3.70182 7.49494 3.83126C7.47707 3.96787 7.41457 4.09474 7.31716 4.19216C7.21974 4.28957 7.09287 4.35207 6.95626 4.36994ZM10.0813 16.8699C9.95182 16.8869 9.82033 16.8628 9.70524 16.8012C9.59015 16.7396 9.49724 16.6435 9.43955 16.5264C9.38186 16.4093 9.36229 16.2771 9.38358 16.1483C9.40488 16.0195 9.46596 15.9006 9.55827 15.8083C9.65058 15.716 9.76948 15.6549 9.89827 15.6336C10.0271 15.6123 10.1593 15.6319 10.2764 15.6896C10.3935 15.7472 10.4896 15.8401 10.5512 15.9552C10.6128 16.0703 10.6369 16.2018 10.6199 16.3313C10.6021 16.4679 10.5396 16.5947 10.4422 16.6922C10.3447 16.7896 10.2179 16.8521 10.0813 16.8699ZM10.0813 13.7449C9.95182 13.7619 9.82033 13.7378 9.70524 13.6762C9.59015 13.6146 9.49724 13.5185 9.43955 13.4014C9.38186 13.2843 9.36229 13.1521 9.38358 13.0233C9.40488 12.8945 9.46596 12.7756 9.55827 12.6833C9.65058 12.591 9.76948 12.5299 9.89827 12.5086C10.0271 12.4873 10.1593 12.5069 10.2764 12.5646C10.3935 12.6222 10.4896 12.7151 10.5512 12.8302C10.6128 12.9453 10.6369 13.0768 10.6199 13.2063C10.6021 13.3429 10.5396 13.4697 10.4422 13.5672C10.3447 13.6646 10.2179 13.7271 10.0813 13.7449ZM10.0813 10.6199C9.95182 10.6369 9.82033 10.6128 9.70524 10.5512C9.59015 10.4896 9.49724 10.3935 9.43955 10.2764C9.38186 10.1593 9.36229 10.0271 9.38358 9.89827C9.40488 9.76948 9.46596 9.65058 9.55827 9.55827C9.65058 9.46596 9.76948 9.40488 9.89827 9.38358C10.0271 9.36229 10.1593 9.38186 10.2764 9.43955C10.3935 9.49724 10.4896 9.59015 10.5512 9.70524C10.6128 9.82033 10.6369 9.95182 10.6199 10.0813C10.6021 10.2179 10.5396 10.3447 10.4422 10.4422C10.3447 10.5396 10.2179 10.6021 10.0813 10.6199Z" fill="black"/>
<path d="M10.4428 7.31745C10.6861 7.07413 10.6851 6.67865 10.4406 6.43412C10.196 6.18958 9.80054 6.18859 9.55723 6.43191C9.31391 6.67522 9.3149 7.0707 9.55944 7.31524C9.80397 7.55977 10.1995 7.56076 10.4428 7.31745Z" fill="black"/>
<path d="M10.0813 4.36994C9.95182 4.38687 9.82033 4.36284 9.70524 4.30123C9.59015 4.23961 9.49724 4.14351 9.43955 4.02641C9.38186 3.9093 9.36229 3.77707 9.38358 3.64827C9.40488 3.51948 9.46596 3.40058 9.55827 3.30827C9.65058 3.21596 9.76948 3.15488 9.89827 3.13358C10.0271 3.11229 10.1593 3.13186 10.2764 3.18955C10.3935 3.24724 10.4896 3.34015 10.5512 3.45524C10.6128 3.57033 10.6369 3.70182 10.6199 3.83126C10.6021 3.96787 10.5396 4.09474 10.4422 4.19216C10.3447 4.28957 10.2179 4.35207 10.0813 4.36994ZM15.625 15.625C15.5014 15.625 15.3806 15.6617 15.2778 15.7303C15.175 15.799 15.0949 15.8966 15.0476 16.0108C15.0003 16.125 14.9879 16.2507 15.012 16.3719C15.0361 16.4932 15.0957 16.6045 15.1831 16.692C15.2705 16.7794 15.3818 16.8389 15.5031 16.863C15.6243 16.8871 15.75 16.8747 15.8642 16.8274C15.9784 16.7801 16.076 16.7 16.1447 16.5972C16.2134 16.4945 16.25 16.3736 16.25 16.25C16.25 16.0843 16.1842 15.9253 16.067 15.8081C15.9497 15.6909 15.7908 15.625 15.625 15.625ZM15.625 12.5C15.5014 12.5 15.3806 12.5367 15.2778 12.6053C15.175 12.674 15.0949 12.7716 15.0476 12.8858C15.0003 13 14.9879 13.1257 15.012 13.2469C15.0361 13.3682 15.0957 13.4795 15.1831 13.567C15.2705 13.6544 15.3818 13.7139 15.5031 13.738C15.6243 13.7621 15.75 13.7497 15.8642 13.7024C15.9784 13.6551 16.076 13.575 16.1447 13.4722C16.2134 13.3695 16.25 13.2486 16.25 13.125C16.25 12.9593 16.1842 12.8003 16.067 12.6831C15.9497 12.5659 15.7908 12.5 15.625 12.5ZM15.625 9.37501C15.5014 9.37501 15.3806 9.41167 15.2778 9.48035C15.175 9.54902 15.0949 9.64663 15.0476 9.76084C15.0003 9.87504 14.9879 10.0007 15.012 10.1219C15.0361 10.2432 15.0957 10.3545 15.1831 10.442C15.2705 10.5294 15.3818 10.5889 15.5031 10.613C15.6243 10.6371 15.75 10.6247 15.8642 10.5774C15.9784 10.5301 16.076 10.45 16.1447 10.3472C16.2134 10.2445 16.25 10.1236 16.25 10C16.25 9.83425 16.1842 9.67528 16.067 9.55807C15.9497 9.44086 15.7908 9.37501 15.625 9.37501ZM13.125 15.625C13.0014 15.625 12.8806 15.6617 12.7778 15.7303C12.675 15.799 12.5949 15.8966 12.5476 16.0108C12.5003 16.125 12.4879 16.2507 12.512 16.3719C12.5361 16.4932 12.5957 16.6045 12.6831 16.692C12.7705 16.7794 12.8818 16.8389 13.0031 16.863C13.1243 16.8871 13.25 16.8747 13.3642 16.8274C13.4784 16.7801 13.576 16.7 13.6447 16.5972C13.7134 16.4945 13.75 16.3736 13.75 16.25C13.75 16.0843 13.6842 15.9253 13.567 15.8081C13.4497 15.6909 13.2908 15.625 13.125 15.625ZM13.125 12.5C13.0014 12.5 12.8806 12.5367 12.7778 12.6053C12.675 12.674 12.5949 12.7716 12.5476 12.8858C12.5003 13 12.4879 13.1257 12.512 13.2469C12.5361 13.3682 12.5957 13.4795 12.6831 13.567C12.7705 13.6544 12.8818 13.7139 13.0031 13.738C13.1243 13.7621 13.25 13.7497 13.3642 13.7024C13.4784 13.6551 13.576 13.575 13.6447 13.4722C13.7134 13.3695 13.75 13.2486 13.75 13.125C13.75 12.9593 13.6842 12.8003 13.567 12.6831C13.4497 12.5659 13.2908 12.5 13.125 12.5ZM13.125 9.37501C13.0014 9.37501 12.8806 9.41167 12.7778 9.48035C12.675 9.54902 12.5949 9.64663 12.5476 9.76084C12.5003 9.87504 12.4879 10.0007 12.512 10.1219C12.5361 10.2432 12.5957 10.3545 12.6831 10.442C12.7705 10.5294 12.8818 10.5889 13.0031 10.613C13.1243 10.6371 13.25 10.6247 13.3642 10.5774C13.4784 10.5301 13.576 10.45 13.6447 10.3472C13.7134 10.2445 13.75 10.1236 13.75 10C13.75 9.83425 13.6842 9.67528 13.567 9.55807C13.4497 9.44086 13.2908 9.37501 13.125 9.37501Z" fill="black"/>
</svg>
