<svg width="20" height="20" viewBox="0 0 20 20" fill="none" xmlns="http://www.w3.org/2000/svg">
<path d="M17.5 13.3348V6.66446C17.4997 6.44614 17.4423 6.2317 17.3334 6.04248C17.2245 5.85325 17.0679 5.69586 16.8793 5.58594L10.9418 2.13048C10.6557 1.96393 10.3306 1.87619 9.99961 1.87619C9.66859 1.87619 9.34349 1.96393 9.05742 2.13048L3.1207 5.58594C2.93207 5.69586 2.77551 5.85325 2.66661 6.04248C2.55771 6.2317 2.50027 6.44614 2.5 6.66446V13.3348C2.50013 13.5532 2.55751 13.7678 2.66641 13.9572C2.77532 14.1466 2.93195 14.3041 3.1207 14.4141L9.0582 17.8695C9.34435 18.0358 9.66942 18.1235 10.0004 18.1235C10.3314 18.1235 10.6564 18.0358 10.9426 17.8695L16.8801 14.4141C17.0687 14.304 17.2252 14.1464 17.3339 13.9571C17.4427 13.7677 17.4999 13.5531 17.5 13.3348Z" stroke="black" stroke-linecap="round" stroke-linejoin="round"/>
<path d="M2.69531 6.01523L10 10.3121M10 10.3121L17.3047 6.01523M10 10.3121V18.1246" stroke="black" stroke-linecap="round" stroke-linejoin="round"/>
</svg>
