<svg width="20" height="20" viewBox="0 0 20 20" fill="none" xmlns="http://www.w3.org/2000/svg">
<path d="M15.2508 2.94061C15.1777 2.94079 15.106 2.92137 15.043 2.88436C13.3094 1.95624 11.8105 1.56249 10.0137 1.56249C8.22578 1.56249 6.52812 2.00311 4.98398 2.88436C4.76562 3.0078 4.49648 2.92186 4.36992 2.6953C4.31343 2.58595 4.30068 2.45919 4.33427 2.34078C4.36787 2.22237 4.44528 2.12119 4.55078 2.0578C6.21616 1.11326 8.09909 0.6194 10.0137 0.624986C11.9367 0.624986 13.6164 1.06561 15.4586 2.04999C15.5661 2.10908 15.6461 2.20795 15.6815 2.32538C15.7169 2.44281 15.7049 2.56944 15.648 2.67811C15.6138 2.75526 15.5582 2.821 15.4878 2.86752C15.4174 2.91405 15.3352 2.93941 15.2508 2.94061ZM2.32929 7.86249C2.23547 7.86182 2.14412 7.83237 2.06757 7.77811C1.96799 7.7041 1.90101 7.59433 1.88076 7.47192C1.8605 7.3495 1.88854 7.22401 1.95898 7.12186C2.85312 5.80936 3.99023 4.77811 5.34531 4.05624C8.18046 2.53905 11.8105 2.52811 14.6547 4.04686C16.0094 4.76874 17.1469 5.79061 18.041 7.09374C18.1112 7.19598 18.139 7.32139 18.1188 7.44372C18.0985 7.56604 18.0318 7.67579 17.9324 7.74999C17.8842 7.78601 17.8291 7.81176 17.7706 7.82564C17.712 7.83953 17.6513 7.84125 17.592 7.83071C17.5328 7.82016 17.4763 7.79757 17.4262 7.76434C17.376 7.7311 17.3332 7.68793 17.3004 7.63749C16.4879 6.45624 15.4586 5.52811 14.2394 4.88124C11.648 3.50311 8.33398 3.50311 5.75156 4.89061C4.52343 5.54686 3.49414 6.48436 2.68164 7.66405C2.6466 7.72612 2.59525 7.77743 2.53314 7.81241C2.47103 7.84739 2.40054 7.86471 2.32929 7.86249ZM7.97265 19.1797C7.91298 19.1802 7.85388 19.168 7.79935 19.1437C7.74483 19.1195 7.69616 19.0838 7.65664 19.039C6.87109 18.2219 6.44531 17.6953 5.84179 16.5625C5.21679 15.4094 4.89375 14.0031 4.89375 12.4937C4.89375 9.70936 7.18711 7.44061 10.0047 7.44061C12.8223 7.44061 15.1172 9.70936 15.1172 12.4937C15.119 12.5541 15.1086 12.6143 15.0867 12.6706C15.0648 12.7269 15.0319 12.7782 14.9898 12.8216C14.9477 12.8649 14.8973 12.8994 14.8417 12.9229C14.786 12.9465 14.7262 12.9586 14.6658 12.9586C14.6054 12.9586 14.5456 12.9465 14.4899 12.9229C14.4343 12.8994 14.3839 12.8649 14.3419 12.8216C14.2998 12.7782 14.2668 12.7269 14.2449 12.6706C14.223 12.6143 14.2127 12.5541 14.2144 12.4937C14.2144 10.225 12.3269 8.37811 10.0066 8.37811C7.68632 8.37811 5.79687 10.225 5.79687 12.4937C5.79687 13.8437 6.08554 15.0906 6.63632 16.1031C7.21445 17.1812 7.61289 17.6406 8.30703 18.3719C8.38935 18.4629 8.43493 18.5812 8.43493 18.7039C8.43493 18.8266 8.38935 18.9449 8.30703 19.0359C8.2184 19.1253 8.09852 19.1769 7.97265 19.1797ZM14.4473 17.4453C13.3727 17.4453 12.4246 17.164 11.648 16.6109C10.9864 16.1472 10.4459 15.5313 10.072 14.815C9.69816 14.0988 9.50184 13.3032 9.4996 12.4953C9.49707 12.4344 9.50688 12.3737 9.52843 12.3167C9.54998 12.2597 9.58283 12.2076 9.62501 12.1636C9.66719 12.1197 9.71783 12.0847 9.77388 12.0608C9.82993 12.0369 9.89023 12.0246 9.95117 12.0246C10.0121 12.0246 10.0724 12.0369 10.1285 12.0608C10.1845 12.0847 10.2351 12.1197 10.2773 12.1636C10.3195 12.2076 10.3524 12.2597 10.3739 12.3167C10.3955 12.3737 10.4053 12.4344 10.4027 12.4953C10.4042 13.1516 10.5643 13.7977 10.8693 14.3788C11.1742 14.9599 11.6151 15.4587 12.1543 15.8328C12.7953 16.2828 13.5449 16.4969 14.448 16.4969C14.7626 16.4913 15.0761 16.4599 15.3855 16.4031C15.6293 16.3562 15.8641 16.525 15.909 16.7875C15.9319 16.9086 15.9058 17.0339 15.8364 17.1358C15.7671 17.2378 15.6601 17.308 15.5391 17.3312C15.1794 17.4023 14.8139 17.44 14.4473 17.4437V17.4453ZM12.632 19.375C12.5924 19.3733 12.553 19.367 12.5148 19.3562C11.0789 18.9437 10.1398 18.3906 9.15546 17.3875C7.89101 16.0844 7.19609 14.35 7.19609 12.4937C7.19609 10.975 8.44218 9.73749 9.97695 9.73749C11.5117 9.73749 12.7582 10.975 12.7582 12.4937C12.7582 13.4969 13.598 14.3125 14.6363 14.3125C15.6746 14.3125 16.5144 13.4969 16.5144 12.4937C16.5144 8.95936 13.5797 6.09061 9.96796 6.09061C7.40351 6.09061 5.05586 7.57186 3.9996 9.86874C3.64804 10.6281 3.46679 11.5187 3.46679 12.4937C3.46679 13.225 3.52968 14.3781 4.07148 15.8781C4.16211 16.1219 4.04453 16.3937 3.80976 16.4781C3.75397 16.4994 3.69446 16.5091 3.6348 16.5068C3.57514 16.5044 3.51658 16.4901 3.46261 16.4645C3.40865 16.439 3.36041 16.4028 3.32078 16.3582C3.28116 16.3135 3.25097 16.2613 3.23203 16.2047C2.79635 15.0159 2.57316 13.7598 2.57265 12.4937C2.57265 11.3687 2.78046 10.3453 3.18671 9.45624C4.38789 6.83905 7.05156 5.14374 9.96796 5.14374C14.0766 5.14374 17.4176 8.43436 17.4176 12.4844C17.4176 14.0031 16.1715 15.2406 14.6363 15.2406C13.1012 15.2406 11.8551 14.0031 11.8551 12.4844C11.8555 11.4812 11.0156 10.664 9.97734 10.664C8.93906 10.664 8.09921 11.4797 8.09921 12.4828C8.09921 14.0844 8.69531 15.5859 9.78789 16.7109C10.6473 17.5922 11.4676 18.0781 12.7406 18.4453C12.9844 18.5109 13.1199 18.7734 13.0566 19.0172C13.0369 19.1161 12.9842 19.2054 12.907 19.2704C12.8298 19.3355 12.7329 19.3723 12.632 19.375Z" fill="black"/>
</svg>
