<svg width="20" height="20" viewBox="0 0 20 20" fill="none" xmlns="http://www.w3.org/2000/svg">
<g clip-path="url(#clip0_28_147)">
<path d="M19.4004 1H2.70893C1.79687 1 1 1.65625 1 2.55759V19.2862C1 20.1924 1.79687 21 2.70893 21H19.3955C20.3125 21 21 20.1871 21 19.2862V2.55759C21.0053 1.65625 20.3125 1 19.4004 1ZM7.19954 17.671H4.33437V8.7625H7.19954V17.671ZM5.86606 7.40804H5.84553C4.92857 7.40804 4.33482 6.72545 4.33482 5.87098C4.33482 5.00089 4.94419 4.33438 5.88169 4.33438C6.81919 4.33438 7.39285 4.99598 7.41338 5.87098C7.41294 6.72545 6.81919 7.40804 5.86606 7.40804ZM17.671 17.671H14.8058V12.8C14.8058 11.633 14.3888 10.8357 13.3522 10.8357C12.5603 10.8357 12.0915 11.3714 11.883 11.8933C11.8049 12.0808 11.7839 12.3362 11.7839 12.5969V17.671H8.91874V8.7625H11.7839V10.0022C12.2009 9.40848 12.8522 8.55402 14.3678 8.55402C16.2486 8.55402 17.6714 9.79375 17.6714 12.4665L17.671 17.671Z" fill="black"/>
</g>
<defs>
<clipPath id="clip0_28_147">
<rect width="20" height="20" fill="white"/>
</clipPath>
</defs>
</svg>
