<svg width="20" height="20" viewBox="0 0 20 20" fill="none" xmlns="http://www.w3.org/2000/svg">
<path d="M13.125 17.5H15.3125C15.8927 17.5 16.4491 17.2695 16.8593 16.8593C17.2695 16.4491 17.5 15.8927 17.5 15.3125V13.125M17.5 6.875V4.6875C17.5 4.10734 17.2695 3.55094 16.8593 3.1407C16.4491 2.73047 15.8927 2.5 15.3125 2.5H13.125M6.875 17.5H4.6875C4.10734 17.5 3.55094 17.2695 3.1407 16.8593C2.73047 16.4491 2.5 15.8927 2.5 15.3125V13.125M2.5 6.875V4.6875C2.5 4.10734 2.73047 3.55094 3.1407 3.1407C3.55094 2.73047 4.10734 2.5 4.6875 2.5H6.875" stroke="black" stroke-width="2" stroke-linecap="round" stroke-linejoin="round"/>
</svg>
